<svg width="38" height="30" viewBox="0 0 38 30" fill="none" xmlns="http://www.w3.org/2000/svg">
<path d="M37.5775 0.261999C28.7995 0.261999 21.7315 7.672 21.7315 18.274C21.7315 24.316 24.3535 29.902 30.3955 29.902C35.5255 29.902 37.9195 26.482 37.9195 22.15C28.9135 22.15 25.6075 17.704 25.6075 13.258C25.6075 5.96199 31.4215 2.086 37.5775 1.972V0.261999ZM16.6015 0.261999C7.82346 0.261999 0.755461 7.672 0.755461 18.274C0.755461 24.316 3.37746 29.902 9.41946 29.902C14.5495 29.902 16.9435 26.482 16.9435 22.15C7.93746 22.15 4.63146 17.704 4.63146 13.258C4.63146 5.96199 10.4455 2.086 16.6015 1.972V0.261999Z" fill="#AA6E1E"/>
</svg>
